<svg width="420" height="156" viewBox="0 0 420 156" fill="none" xmlns="http://www.w3.org/2000/svg">
<g filter="url(#filter0_d_103_3778)">
<path d="M44.3348 10C25.3723 10 10 25.2224 10 44C10 62.7776 25.3723 78 44.3348 78H93.0589C94.6248 78 95.3347 80.1244 94.1819 81.1841C86.7521 88.014 82.103 97.7693 82.103 108.6C82.103 129.255 99.0124 146 119.871 146H331.888V105.2C331.888 95.8046 328.04 87.2995 321.819 81.1458C320.724 80.0622 321.448 78 322.989 78H375.665C394.628 78 410 62.7776 410 44C410 25.2224 394.628 10 375.665 10H44.3348Z" fill="white"/>
<path d="M377.697 61.0001H359.175C359.367 56.581 359.511 52.3995 359.559 47.3152C359.559 45.0819 359.703 42.611 359.847 40.1876L359.511 40.0926C358.407 42.516 357.208 44.9869 355.96 46.8875L346.219 61.0001H335.998L325.25 45.4145C324.05 43.5138 322.85 41.0429 321.747 38.7146L321.363 38.7621C321.555 41.138 321.747 43.5138 321.795 46.0322C321.843 51.6868 321.939 56.3434 322.179 61.0001H305.672C305.96 55.8683 306.056 50.6889 306.056 43.1337C306.056 35.3409 305.96 30.019 305.768 25.3623H331.584C333.503 28.9261 336.286 33.6303 339.837 39.5699C340.845 41.328 341.948 43.4188 343.052 45.5571H343.1C344.156 43.4188 345.211 41.328 346.171 39.5699C349.482 33.9154 352.553 28.8311 354.425 25.3623H377.601C377.457 30.019 377.313 35.3409 377.313 43.1337C377.313 50.6889 377.361 55.8683 377.697 61.0001Z" fill="black"/>
<path d="M265.681 46.2223C267.553 46.2223 270 46.2223 272.495 46.1748C271.247 43.3238 269.856 40.3777 268.56 37.8118C267.516 35.9099 266.727 34.1878 266.065 32.7083C265.953 32.457 265.597 32.455 265.483 32.7055C264.823 34.1525 264.041 35.8807 263.042 37.8593C261.794 40.4252 260.451 43.3238 259.107 46.1748C261.555 46.2223 263.81 46.2223 265.681 46.2223ZM301.286 61.0001H278.061C277.821 59.7172 277.054 57.4838 276.046 54.7279C272.207 54.7279 268.512 54.7279 265.633 54.7279C262.898 54.7279 259.155 54.7279 255.364 54.7279C254.261 57.3888 253.397 59.6221 253.013 61.0001H231.756C237.418 51.7343 247.975 31.0644 250.23 25.3623H282.332C284.731 31.1119 295.384 51.6392 301.286 61.0001Z" fill="black"/>
<path d="M175.396 25.3623H227.892C227.844 26.5027 227.796 28.3084 227.796 29.8764C227.796 31.492 227.796 33.3452 227.892 34.3906C218.438 34.343 203.851 34.2955 195.31 34.2955V38.9047C205.051 38.9047 219.734 38.9047 227.364 38.7146C227.268 40.6628 227.22 44.5592 227.268 46.65C219.83 46.5549 204.955 46.4124 195.31 46.4124V51.1641C203.947 51.1641 219.302 51.1166 227.892 51.069C227.796 52.3045 227.796 54.3002 227.796 56.1534C227.796 57.769 227.796 59.7172 227.892 61.0001H175.396C175.636 56.0583 175.684 50.7839 175.684 43.1812C175.684 35.626 175.636 30.2566 175.396 25.3623Z" fill="black"/>
<path d="M140.31 41.8982C146.164 41.8982 148.276 40.7103 148.276 38.1444C148.276 35.531 146.164 34.6281 140.358 34.6281C137.671 34.6281 130.665 34.6757 126.682 34.8182C126.682 37.1465 126.682 39.5224 126.73 41.8032C129.705 41.8982 134.84 41.8982 140.31 41.8982ZM153.506 45.6521V45.9847C161.999 46.7925 165.79 48.4081 167.086 54.0626C167.758 56.7711 168.381 59.5271 169.005 61.0001H152.69C149.523 61.0001 148.708 60.3349 147.796 55.9158C146.98 51.5442 145.636 50.5939 138.967 50.5939H126.874C127.018 54.8704 127.21 58.5292 127.594 61.0001H107.776C107.92 55.8208 108.064 50.8315 108.064 43.1812C108.064 35.626 107.968 30.4942 107.776 25.3623H146.548C160.224 25.3623 166.99 28.1658 166.99 35.721C166.99 41.8982 163.103 44.7018 153.506 45.6521Z" fill="black"/>
<path d="M73.2859 50.2137C79.236 50.2137 82.355 47.9804 82.355 42.5635C82.355 37.3366 79.5239 35.3884 73.2859 35.3884C69.0152 35.3884 65.0325 35.4359 61.1457 35.5785C61.0977 38.1444 61.0497 40.8054 61.0497 43.3238C61.0497 45.9847 61.0497 48.123 61.0497 49.9761C65.3204 50.3563 68.6793 50.2137 73.2859 50.2137ZM41.7598 25.3623H75.6371C95.3589 25.3623 101.933 30.4941 101.933 42.1833C101.933 55.3931 95.8868 61.0001 75.3972 61.0001H41.7598C41.9037 55.9633 41.9037 50.7839 41.9037 43.2287C41.9037 35.6735 41.9037 30.2566 41.7598 25.3623Z" fill="black"/>
<path d="M292.601 89.9624H309.251C309.059 94.2389 309.011 100.179 309.011 107.734C309.011 115.622 309.011 120.944 309.155 125.6H288.33C285.979 122.559 275.374 114.956 269.328 110.3C267.6 108.542 265.969 106.831 264.577 105.12L264.481 105.168C264.721 108.019 264.769 110.68 264.865 113.673C264.961 119.613 265.009 123.747 265.105 125.6H248.311C248.311 120.753 248.455 115.384 248.455 107.781C248.455 100.226 248.502 94.9042 248.311 89.9624H270.576C271.919 92.0056 284.011 101.462 289.338 105.548C290.681 106.878 292.073 108.114 293.176 109.539L293.272 109.492C293.08 106.974 293.033 104.598 292.985 102.792C292.937 97.28 292.793 92.2432 292.601 89.9624Z" fill="black"/>
<path d="M244.193 107.401C244.193 119.612 235.604 126.93 210.652 126.93C185.7 126.93 177.398 119.612 177.398 107.401C177.398 94.9036 186.947 88.6313 210.652 88.6313C234.405 88.6313 244.193 94.9036 244.193 107.401ZM210.7 115.431C220.585 115.431 223.944 112.58 223.944 107.401C223.944 102.221 220.489 99.6078 210.7 99.6078C200.863 99.6078 197.456 102.221 197.456 107.401C197.456 112.58 200.815 115.431 210.7 115.431Z" fill="black"/>
<path d="M154.533 105.073V104.407C154.533 101.224 150.886 99.8933 142.44 99.8933C133.227 100.131 129.628 101.794 129.628 107.211C129.628 112.058 133.515 114.719 142.824 114.719C151.606 114.719 154.533 113.103 154.533 110.205V109.207C157.316 109.302 161.059 109.302 164.274 109.302C167.489 109.302 170.704 109.302 173.871 109.207C173.919 110.014 173.967 110.775 173.967 111.487C173.967 121.704 166.433 126.455 142.297 126.455C118.256 126.455 109.571 120.896 109.571 107.163C109.571 93.526 120.799 89.1069 142.201 89.1069C163.314 89.1069 173.823 91.4353 173.823 102.079C173.823 103.029 173.727 104.027 173.631 105.073C170.464 104.978 167.297 104.978 164.178 104.978C161.011 104.978 157.268 104.978 154.533 105.073Z" fill="black"/>
</g>
<defs>
<filter id="filter0_d_103_3778" x="0" y="0" width="420" height="156" filterUnits="userSpaceOnUse" color-interpolation-filters="sRGB">
<feFlood flood-opacity="0" result="BackgroundImageFix"/>
<feColorMatrix in="SourceAlpha" type="matrix" values="0 0 0 0 0 0 0 0 0 0 0 0 0 0 0 0 0 0 127 0" result="hardAlpha"/>
<feOffset/>
<feGaussianBlur stdDeviation="5"/>
<feComposite in2="hardAlpha" operator="out"/>
<feColorMatrix type="matrix" values="0 0 0 0 0 0 0 0 0 0 0 0 0 0 0 0 0 0 0.1 0"/>
<feBlend mode="normal" in2="BackgroundImageFix" result="effect1_dropShadow_103_3778"/>
<feBlend mode="normal" in="SourceGraphic" in2="effect1_dropShadow_103_3778" result="shape"/>
</filter>
</defs>
</svg>
