<svg width="36" height="36" viewBox="0 0 36 36" fill="none" xmlns="http://www.w3.org/2000/svg">
<path d="M30.5107 0C33.5252 7.30114e-05 36 2.35125 36 5.30957V22.4023C36 25.318 33.571 27.7117 30.5107 27.7119H18.585L10.2607 35.6328C8.9108 36.5917 7.06446 35.5465 7.33496 33.9365L8.09961 27.7559L5.48926 27.7549C2.47499 27.7547 0.000258338 25.3608 0 22.4453V5.30957C4.30696e-05 2.39395 2.42906 0.000166377 5.48926 0H30.5107ZM18.3857 19.0996C17.6619 19.0996 17.1419 19.2659 16.8252 19.5977C16.5237 19.9293 16.3721 20.336 16.3721 20.8184V21.3613C16.3721 21.8439 16.5236 22.2513 16.8252 22.583C17.1419 22.9146 17.6621 23.0811 18.3857 23.0811C19.1095 23.081 19.6223 22.9147 19.9238 22.583C20.2404 22.2513 20.3984 21.8438 20.3984 21.3613V20.8184C20.3984 20.3361 20.2402 19.9293 19.9238 19.5977C19.6223 19.2659 19.1095 19.0996 18.3857 19.0996ZM18.6113 6.75C17.8425 6.75004 17.1641 6.85537 16.5762 7.06641C16.0032 7.27751 15.5052 7.5565 15.083 7.90332C14.676 8.23498 14.3442 8.61948 14.0879 9.05664C13.8315 9.47885 13.6357 9.91677 13.5 10.3691L16.2598 11.5225C16.3955 10.9646 16.6514 10.5044 17.0283 10.1426C17.4204 9.78069 17.9109 9.59961 18.499 9.59961C19.0417 9.59967 19.4789 9.75121 19.8105 10.0527C20.1572 10.3543 20.3311 10.7914 20.3311 11.3643V11.6807C20.3311 12.5251 20.0289 13.1283 19.4258 13.4902C18.8377 13.837 17.948 14.0329 16.7568 14.0781V17.5391H19.9238V15.9102C20.4515 15.8197 20.957 15.6543 21.4395 15.4131C21.9219 15.1718 22.3442 14.8623 22.7061 14.4854C23.0678 14.0934 23.3544 13.6413 23.5654 13.1289C23.7765 12.6162 23.8818 12.0425 23.8818 11.4092C23.8818 10.7157 23.7533 10.0827 23.4971 9.50977C23.2558 8.93678 22.902 8.44619 22.4346 8.03906C21.9671 7.63194 21.4091 7.31505 20.7607 7.08887C20.1123 6.86268 19.3954 6.75 18.6113 6.75Z" fill="black"/>
</svg>
