<svg width="62" height="66" viewBox="0 0 62 66" fill="none" xmlns="http://www.w3.org/2000/svg">
<g filter="url(#filter0_d_114_5455)">
<rect x="1" y="1" width="60" height="60" rx="30" fill="#F6E954" shape-rendering="crispEdges"/>
<rect x="1" y="1" width="60" height="60" rx="30" stroke="black" stroke-width="2" shape-rendering="crispEdges"/>
<path d="M43.5107 13C46.5252 13.0001 49 15.3512 49 18.3096V35.4023C49 38.318 46.571 40.7117 43.5107 40.7119H31.585L23.2607 48.6328C21.9108 49.5917 20.0645 48.5465 20.335 46.9365L21.0996 40.7559L18.4893 40.7549C15.475 40.7547 13.0003 38.3608 13 35.4453V18.3096C13 15.3939 15.4291 13.0002 18.4893 13H43.5107ZM31.3857 32.0996C30.6619 32.0996 30.1419 32.2659 29.8252 32.5977C29.5237 32.9293 29.3721 33.336 29.3721 33.8184V34.3613C29.3721 34.8439 29.5236 35.2513 29.8252 35.583C30.1419 35.9146 30.6621 36.0811 31.3857 36.0811C32.1095 36.081 32.6223 35.9147 32.9238 35.583C33.2404 35.2513 33.3984 34.8438 33.3984 34.3613V33.8184C33.3984 33.3361 33.2402 32.9293 32.9238 32.5977C32.6223 32.2659 32.1095 32.0996 31.3857 32.0996ZM31.6113 19.75C30.8425 19.75 30.1641 19.8554 29.5762 20.0664C29.0032 20.2775 28.5052 20.5565 28.083 20.9033C27.676 21.235 27.3442 21.6195 27.0879 22.0566C26.8315 22.4789 26.6357 22.9168 26.5 23.3691L29.2598 24.5225C29.3955 23.9646 29.6514 23.5044 30.0283 23.1426C30.4204 22.7807 30.9109 22.5996 31.499 22.5996C32.0417 22.5997 32.4789 22.7512 32.8105 23.0527C33.1572 23.3543 33.3311 23.7914 33.3311 24.3643V24.6807C33.3311 25.5251 33.0289 26.1283 32.4258 26.4902C31.8377 26.837 30.948 27.0329 29.7568 27.0781V30.5391H32.9238V28.9102C33.4515 28.8197 33.957 28.6543 34.4395 28.4131C34.9219 28.1718 35.3442 27.8623 35.7061 27.4854C36.0678 27.0934 36.3544 26.6413 36.5654 26.1289C36.7765 25.6162 36.8818 25.0425 36.8818 24.4092C36.8818 23.7157 36.7533 23.0827 36.4971 22.5098C36.2558 21.9368 35.902 21.4462 35.4346 21.0391C34.9671 20.6319 34.4091 20.3151 33.7607 20.0889C33.1123 19.8627 32.3954 19.75 31.6113 19.75Z" fill="black"/>
</g>
<defs>
<filter id="filter0_d_114_5455" x="0" y="0" width="62" height="66" filterUnits="userSpaceOnUse" color-interpolation-filters="sRGB">
<feFlood flood-opacity="0" result="BackgroundImageFix"/>
<feColorMatrix in="SourceAlpha" type="matrix" values="0 0 0 0 0 0 0 0 0 0 0 0 0 0 0 0 0 0 127 0" result="hardAlpha"/>
<feOffset dy="4"/>
<feComposite in2="hardAlpha" operator="out"/>
<feColorMatrix type="matrix" values="0 0 0 0 0 0 0 0 0 0 0 0 0 0 0 0 0 0 1 0"/>
<feBlend mode="normal" in2="BackgroundImageFix" result="effect1_dropShadow_114_5455"/>
<feBlend mode="normal" in="SourceGraphic" in2="effect1_dropShadow_114_5455" result="shape"/>
</filter>
</defs>
</svg>
