<svg width="32" height="32" viewBox="0 0 32 32" fill="none" xmlns="http://www.w3.org/2000/svg">
<path d="M16 0.5C24.5611 0.500001 31.5 7.43893 31.5 16C31.5 24.5611 24.5611 31.5 16 31.5C7.43893 31.5 0.500001 24.5611 0.5 16C0.5 7.43893 7.43893 0.5 16 0.5Z" stroke="black"/>
<path fill-rule="evenodd" clip-rule="evenodd" d="M13.4968 20.8287C13.4968 19.3319 13.4883 17.8351 13.5052 16.3382C13.5052 16.0845 13.4376 16.0084 13.1839 16.0169C12.7188 16.0338 12.2537 16.0169 11.7801 16.0253C11.594 16.0338 11.5179 15.9746 11.5264 15.7801C11.5348 14.8499 11.5348 13.9112 11.5264 12.9809C11.5264 12.8033 11.5771 12.7441 11.7632 12.7441C12.2367 12.7526 12.7188 12.7272 13.1923 12.7526C13.4714 12.7695 13.5222 12.668 13.5222 12.4143C13.5052 11.704 13.5052 10.9936 13.5222 10.2833C13.5391 9.41222 13.7759 8.60038 14.2917 7.89848C14.9429 7.00207 15.8731 6.59616 16.9471 6.54542C18.0465 6.49468 19.1543 6.52005 20.2621 6.51159C20.4143 6.51159 20.4651 6.56233 20.4651 6.71455C20.4566 7.66169 20.4566 8.60884 20.4651 9.54753C20.4651 9.71666 20.4143 9.7674 20.2452 9.7674C19.7124 9.75895 19.1797 9.75895 18.6554 9.7674C17.945 9.7674 17.5222 10.131 17.4799 10.8329C17.446 11.3911 17.4714 11.9577 17.4545 12.5243C17.446 12.7272 17.5729 12.7103 17.6997 12.7103C18.5031 12.7103 19.315 12.7188 20.1184 12.7019C20.3551 12.7019 20.4312 12.7526 20.4059 12.9978C20.3044 13.9365 20.2198 14.8752 20.1353 15.8224C20.1184 16.0338 20.0169 16.0761 19.8308 16.0761C19.1966 16.0676 18.5539 16.0676 17.9196 16.0761C17.463 16.0761 17.5052 16.0084 17.5052 16.4735C17.5052 19.408 17.4968 22.334 17.5137 25.2685C17.5137 25.5814 17.4376 25.6575 17.1332 25.649C16.0422 25.6321 14.9429 25.6321 13.852 25.649C13.5475 25.6575 13.4968 25.5475 13.4968 25.2769C13.4968 23.7801 13.4968 22.3086 13.4968 20.8287Z" fill="black"/>
</svg>
