<svg width="16" height="16" viewBox="0 0 16 16" fill="none" xmlns="http://www.w3.org/2000/svg">
<path d="M12.5013 5.09176C14.4379 5.77393 14.581 7.01832 13.9935 8.33745C13.3045 9.88558 11.6776 11.5645 10.5671 12.6727C9.45656 13.7809 8.15282 14.3051 6.82068 14.3328C5.51027 14.3606 4.20474 13.8707 3.16967 12.8378C1.66544 11.3367 1.66724 9.46916 1.66845 7.47086V7.28827H1.66966V4.28364C1.66966 4.00583 1.78441 3.75274 1.96798 3.56894C2.15216 3.38576 2.40516 3.27186 2.68417 3.27186C2.96318 3.27186 3.21617 3.38576 3.39973 3.56894C3.5833 3.75212 3.69805 4.00583 3.69805 4.28364V5.07487C3.69805 5.25926 3.8478 5.40873 4.03319 5.40873C4.04829 5.40873 4.0628 5.40815 4.07727 5.40573C4.24757 5.39005 4.3798 5.24723 4.3798 5.07429H4.38101V3.42733C4.38101 3.14952 4.49514 2.89643 4.67933 2.71325C4.86289 2.52944 5.11655 2.41555 5.39489 2.41555C5.67324 2.41555 5.9269 2.52944 6.11108 2.71325C6.29465 2.89643 6.4094 3.14956 6.4094 3.42733V4.98931C6.4094 5.1737 6.55915 5.32317 6.74396 5.32317C6.76026 5.32317 6.77598 5.32197 6.79108 5.32018C6.96138 5.3027 7.09119 5.1593 7.09119 4.98873H7.0924V2.68008C7.0924 2.40228 7.20653 2.14918 7.39009 1.966C7.57428 1.7822 7.8279 1.6683 8.10629 1.6683C8.38467 1.6683 8.63829 1.7822 8.82248 1.966C9.00604 2.14918 9.12017 2.40228 9.12017 2.68008V4.74043C9.12017 4.92481 9.27054 5.07487 9.45531 5.07487C9.48733 5.07487 9.51811 5.07004 9.54772 5.0616C9.69746 5.02544 9.80196 4.89044 9.80196 4.7386H9.80317V3.94075C9.80317 3.66236 9.9173 3.40985 10.1015 3.22605C10.2857 3.04287 10.5387 2.92835 10.8177 2.92835C11.0967 2.92835 11.3497 3.04283 11.5332 3.22605C11.7168 3.40927 11.8316 3.66236 11.8316 3.94075V7.55825C11.8316 7.74264 11.9813 7.89211 12.1661 7.89211C12.3509 7.89211 12.5013 7.74268 12.5013 7.55825V5.09176H12.5013ZM14.6034 8.60681C15.3818 6.8574 15.1777 5.2171 12.5013 4.38909V3.94075C12.5013 3.47793 12.3123 3.05793 12.0067 2.75361C11.7018 2.4493 11.2809 2.26008 10.8177 2.26008C10.4306 2.26008 10.0738 2.39145 9.78873 2.612C9.77122 2.17632 9.58582 1.7822 9.29597 1.49295C8.99102 1.18863 8.56952 1 8.10632 1C7.64313 1 7.22167 1.18863 6.91672 1.49295C6.73011 1.67916 6.587 1.90874 6.50368 2.16487C6.2072 1.90516 5.81889 1.74724 5.39497 1.74724C4.93181 1.74724 4.5109 1.93646 4.20536 2.24078C3.99824 2.44747 3.84425 2.7078 3.76694 2.99888C3.47408 2.75241 3.09545 2.60297 2.6842 2.60297C2.22042 2.60297 1.79955 2.79219 1.4946 3.0965C1.18965 3.40082 1 3.82144 1 4.28364V7.28827H1.00121V7.47086C0.999415 9.61377 0.998206 11.6163 2.69626 13.3108C3.86476 14.4769 5.34543 15.0301 6.83398 14.9987C8.33701 14.9674 9.84366 14.3395 11.0406 13.1451C12.2375 11.9507 13.863 10.2694 14.6034 8.60677V8.60681Z" fill="black" stroke="black" stroke-linejoin="round"/>
</svg>
