<svg width="16" height="16" viewBox="0 0 16 16" fill="none" xmlns="http://www.w3.org/2000/svg">
<path d="M10.2972 7.56181L15 13.0259V13.744V13.7434C14.996 14.436 14.436 14.9959 13.7434 15H2.25664C1.56405 14.996 1.00405 14.436 1 13.7434V12.8892L4.99874 8.89049C5.03307 8.85549 5.07951 8.8353 5.12798 8.8353C5.17711 8.8353 5.22355 8.85549 5.25721 8.89049L6.4849 10.1539L6.14769 10.5631C5.96058 10.7939 5.99221 11.1325 6.21971 11.3243C6.31731 11.4024 6.43913 11.4455 6.56433 11.4462C6.72452 11.4462 6.87731 11.3748 6.98029 11.2523L10.0246 7.59819C10.0482 7.54502 10.0966 7.50733 10.1539 7.49723C10.2104 7.48848 10.2669 7.51403 10.2972 7.56181ZM15 2.25664V11.3889L11.1157 6.85845C10.8761 6.57711 10.5234 6.41692 10.1538 6.42028C9.78366 6.4196 9.43298 6.58585 9.19874 6.87258L7.18154 9.2923L6.01846 8.12922C5.52576 7.6399 4.73086 7.6399 4.23818 8.12922L1 11.3674V2.25664C1.00404 1.56405 1.56403 1.00405 2.25664 1H13.7434C14.436 1.00404 14.9959 1.56403 15 2.25664ZM8.53846 5.12799C8.53846 4.32972 8.05721 3.60953 7.31952 3.30394C6.58184 2.99837 5.73241 3.1673 5.16774 3.73202C4.60371 4.29672 4.43476 5.14615 4.74033 5.8838C5.04591 6.62148 5.76543 7.10273 6.56438 7.10273C7.65476 7.10273 8.53846 6.21838 8.53846 5.12799ZM6.56433 4.23078C6.20087 4.23078 5.87376 4.44953 5.7351 4.78472C5.59578 5.11991 5.67318 5.50625 5.92962 5.7627C6.18606 6.01915 6.57241 6.09655 6.9076 5.95722C7.24279 5.81856 7.46154 5.49145 7.46154 5.12799C7.46154 4.89039 7.36731 4.66222 7.19837 4.49395C7.0301 4.32501 6.80193 4.23078 6.56433 4.23078Z" fill="black"/>
</svg>
