<svg width="32" height="32" viewBox="0 0 32 32" fill="none" xmlns="http://www.w3.org/2000/svg">
<path d="M16 0.5C24.5611 0.5 31.5 7.43893 31.5 16C31.5 24.5611 24.5611 31.5 16 31.5C7.43893 31.5 0.5 24.5611 0.5 16C0.5 7.43893 7.43893 0.5 16 0.5Z" stroke="black"/>
<path d="M15.9814 7.43663C20.1819 7.43673 24.9639 10.2247 24.9639 14.9464C24.9714 16.276 24.5862 17.8473 23.4229 19.2901C22.267 20.7255 17.1982 24.1703 16.0117 24.8732C15.5282 25.1602 14.9161 24.8127 14.916 24.2462V22.4933C12.083 22.3799 7.01367 19.8717 7.01367 14.9913C7.01375 9.90701 12.0983 7.43663 15.9814 7.43663ZM11.0625 12.6046C10.8285 12.6048 10.6396 12.8069 10.6396 13.0577V16.5382C10.6396 16.789 10.8285 16.9911 11.0625 16.9913H12.6113C12.8455 16.9913 13.0342 16.7891 13.0342 16.5382C13.0341 16.2873 12.8379 16.0851 12.6113 16.0851H11.4863V13.0577C11.4863 12.8068 11.2967 12.6046 11.0625 12.6046ZM13.7979 12.5968C13.5637 12.5968 13.375 12.799 13.375 13.0499V16.5304C13.3751 16.7813 13.5637 16.9835 13.7979 16.9835C14.032 16.9835 14.2206 16.7812 14.2207 16.5304V13.0499C14.2207 12.799 14.032 12.5968 13.7979 12.5968ZM17.6279 12.5968C17.3938 12.5969 17.2051 12.799 17.2051 13.0499V15.13L15.6787 12.88C15.573 12.7181 15.3769 12.6532 15.2031 12.7179C15.0294 12.7826 14.9083 12.9524 14.9082 13.1466V16.5304C14.9083 16.7811 15.0971 16.9833 15.3311 16.9835C15.5652 16.9835 15.7548 16.7813 15.7549 16.5304V14.547L17.2803 16.797C17.3633 16.9183 17.4918 16.9834 17.6201 16.9835C17.6654 16.9835 17.7112 16.9753 17.749 16.9591C17.9227 16.8943 18.0439 16.7246 18.0439 16.5304V13.0499C18.0515 12.799 17.8621 12.5968 17.6279 12.5968ZM19.041 12.5235C18.8069 12.5235 18.6173 12.7258 18.6172 12.9767V16.4571C18.6172 16.7081 18.8068 16.9103 19.041 16.9103H21.1406C21.3748 16.9103 21.5635 16.7081 21.5635 16.4571C21.5633 16.2064 21.3747 16.004 21.1406 16.004H19.4639V15.17H20.7705C21.0047 15.17 21.1934 14.9678 21.1934 14.7169C21.1932 14.4661 21.0046 14.2638 20.7705 14.2638H19.4639V13.4298H21.0732C21.3073 13.4296 21.4961 13.2275 21.4961 12.9767C21.496 12.726 21.3072 12.5238 21.0732 12.5235H19.041Z" fill="black"/>
</svg>
